<?xml version="1.0" encoding="utf-8"?>

<!-- Uploaded to: SVG Repo, www.svgrepo.com, Generator: SVG Repo Mixer Tools -->
<svg width="800px" height="800px" viewBox="0 -12.02 94.572 94.572" xmlns="http://www.w3.org/2000/svg">
  <g id="happy" transform="translate(-62.8 -53.014)">
    <path id="Path_1" data-name="Path 1" d="M64.223,87.785c.283-26.649,16.426-33.362,45.857-33.353,29.458.009,45.585,6.732,45.869,33.353.293,27.433-16.715,34.458-46.566,34.333C79.9,121.992,63.938,114.549,64.223,87.785Z" fill="#a4d4b2" fill-rule="evenodd"/>
    <path id="Path_2" data-name="Path 2" d="M64.223,87.785c.015-1.428.078-2.8.184-4.11,1.853,22.4,17.569,28.84,44.977,28.957,27.8.116,44.46-5.971,46.379-28.97.107,1.319.171,2.69.186,4.123.292,27.433-16.714,34.458-46.565,34.333C79.9,121.992,63.939,114.55,64.223,87.785Z" fill="#1a1818" fill-rule="evenodd" opacity="0.15"/>
    <path id="Path_3" data-name="Path 3" d="M62.8,87.774c.147-13.863,4.477-22.577,12.649-27.858,8.008-5.175,19.647-6.907,34.627-6.9s26.629,1.745,34.642,6.925c8.172,5.282,12.5,13.991,12.646,27.835.152,14.26-4.252,23.255-12.625,28.7-8.21,5.341-20.175,7.124-35.365,7.06-15.021-.064-26.638-2.02-34.54-7.422-8.051-5.5-12.182-14.431-12.034-28.34ZM76.988,62.308C69.661,67.043,65.776,75.01,65.641,87.8c-.137,12.855,3.57,21.031,10.8,25.971,7.377,5.043,18.483,6.871,32.949,6.932,14.66.062,26.125-1.606,33.808-6.6,7.52-4.893,11.474-13.128,11.334-26.3-.137-12.776-4.017-20.74-11.344-25.477-7.485-4.838-18.638-6.464-33.107-6.469C95.63,55.846,84.48,57.467,76.988,62.308Z" fill="#1a1818" fill-rule="evenodd"/>
    <path id="Path_4" data-name="Path 4" d="M95.871,86.318a1.419,1.419,0,1,1,2.146-1.857,15.345,15.345,0,0,0,1.58,1.584,16.308,16.308,0,0,0,20.969,0,15.318,15.318,0,0,0,1.588-1.584,1.419,1.419,0,1,1,2.146,1.857,17.937,17.937,0,0,1-1.877,1.873,19.151,19.151,0,0,1-24.683,0A17.964,17.964,0,0,1,95.871,86.318Z" fill="#1a1818" fill-rule="evenodd"/>
    <path id="Path_5" data-name="Path 5" d="M89.369,88.893l-6.057,0a1.68,1.68,0,0,1-1.172-2.884,5.753,5.753,0,0,1,7.928-.46,5.537,5.537,0,0,1,.568.568,1.678,1.678,0,0,1-1.267,2.773Z" fill="#eb505e" fill-rule="evenodd"/>
    <path id="Path_6" data-name="Path 6" d="M136.858,88.895H130.8A1.68,1.68,0,0,1,129.638,86a5.438,5.438,0,0,1,.462-.45,5.77,5.77,0,0,1,7.458,0,5.575,5.575,0,0,1,.567.56,1.68,1.68,0,0,1-1.267,2.782Z" fill="#eb505e" fill-rule="evenodd"/>
    <g id="Group_1" data-name="Group 1">
      <path id="Path_7" data-name="Path 7" d="M86.342,82.325A6.226,6.226,0,1,0,80.116,76.1,6.237,6.237,0,0,0,86.342,82.325Z" fill="#1a1818" fill-rule="evenodd"/>
      <path id="Path_8" data-name="Path 8" d="M85.747,75.709a2,2,0,1,0-2-2A2,2,0,0,0,85.747,75.709Z" fill="#ffffff" fill-rule="evenodd"/>
      <path id="Path_9" data-name="Path 9" d="M83.649,79.028a1.241,1.241,0,1,0-1.241-1.24A1.242,1.242,0,0,0,83.649,79.028Z" fill="#ffffff" fill-rule="evenodd"/>
    </g>
    <g id="Group_2" data-name="Group 2">
      <path id="Path_10" data-name="Path 10" d="M133.83,82.325A6.226,6.226,0,1,0,127.6,76.1,6.238,6.238,0,0,0,133.83,82.325Z" fill="#1a1818" fill-rule="evenodd"/>
      <path id="Path_11" data-name="Path 11" d="M133.236,75.709a2,2,0,1,0-2-2A2,2,0,0,0,133.236,75.709Z" fill="#ffffff" fill-rule="evenodd"/>
      <path id="Path_12" data-name="Path 12" d="M131.137,79.028a1.241,1.241,0,1,0-1.241-1.24A1.243,1.243,0,0,0,131.137,79.028Z" fill="#ffffff" fill-rule="evenodd"/>
    </g>
  </g>
</svg>



<svg width="176px" height="176px" viewBox="-9.46 -9.46 113.49 113.49" xmlns="http://www.w3.org/2000/svg" fill="#000000" transform="rotate(0)" stroke="#000000" stroke-width="0.00094572"><g id="SVGRepo_bgCarrier" stroke-width="0" transform="translate(0,0), scale(1)"><path transform="translate(-9.46, -9.46), scale(3.5465625)" d="M16,29.85152296296188C18.308979277089637,30.089337496047147,20.783490688842807,30.10665380500286,22.80501758292995,28.965877722391404C24.814013385130632,27.832173111326977,25.9788983241152,25.668788016360722,27.040903715278574,23.62098557775766C28.022792056641542,21.727668127008794,28.126693140138464,19.591764086823346,28.727746600785373,17.54542823421775C29.447038177778925,15.096541007289693,31.77461701737401,12.745888377630383,30.944028251094405,10.332477653307773C30.12039708667142,7.939283372570772,27.027518432551446,7.256139556325318,24.78367342929993,6.085282279905913C22.930120338533335,5.118082620210665,20.976107146985015,4.546871517200052,18.94071561937529,4.069047730287398C16.92408585785274,3.5956284119987583,14.932111467060302,3.1296473176262505,12.86669453131927,3.2876799963401755C10.570764520351872,3.4633500818779845,8.161289196527955,3.6984696382133464,6.287780582174623,5.037170525699972C4.36029055746587,6.414443406609498,2.9323949073437006,8.524635573852851,2.330859033406396,10.815978624599957C1.7471932526985992,13.039251730208754,2.6340270349136286,15.309011158748293,2.9952135295188675,17.57906696462783C3.3442641026954205,19.77284854843549,3.170274493737783,22.15655811538677,4.426720173782684,23.98845827456167C5.683963486119096,25.82152138311432,7.9101037012297395,26.6314717296656,9.89295949048577,27.635993519058534C11.853192571709675,28.62905456416715,13.81413664896289,29.626388819328373,16,29.85152296296188" fill="#ffcf0f" strokewidth="0"></path></g><g id="SVGRepo_tracerCarrier" stroke-linecap="round" stroke-linejoin="round"></g><g id="SVGRepo_iconCarrier"> <g id="sad" transform="translate(-205.409 -53.014)"> <path id="Path_14" data-name="Path 14" d="M206.832,87.785c.283-26.649,16.426-33.362,45.857-33.353,29.458.009,45.585,6.732,45.869,33.353.293,27.433-16.715,34.458-46.565,34.333C222.506,121.992,206.548,114.549,206.832,87.785Z" fill="#b9e2f8" fill-rule="evenodd"></path> <path id="Path_15" data-name="Path 15" d="M206.832,87.785c.015-1.428.078-2.8.184-4.11,1.853,22.4,17.57,28.84,44.977,28.957,27.8.116,44.46-5.971,46.38-28.97.106,1.319.17,2.69.185,4.123.293,27.433-16.714,34.458-46.565,34.333C222.506,121.992,206.548,114.55,206.832,87.785Z" fill="#1a1818" fill-rule="evenodd" opacity="0.15"></path> <path id="Path_16" data-name="Path 16" d="M205.413,87.774c.148-13.863,4.477-22.577,12.649-27.858,8.008-5.175,19.647-6.907,34.627-6.9s26.629,1.745,34.643,6.925c8.171,5.282,12.5,13.991,12.645,27.835.152,14.26-4.252,23.255-12.624,28.7-8.211,5.341-20.176,7.124-35.366,7.06-15.021-.064-26.638-2.02-34.54-7.422-8.051-5.5-12.181-14.431-12.034-28.34ZM219.6,62.308c-7.328,4.735-11.212,12.7-11.348,25.488-.136,12.855,3.571,21.031,10.8,25.971,7.377,5.043,18.483,6.871,32.949,6.932,14.66.062,26.125-1.606,33.808-6.6,7.52-4.893,11.474-13.128,11.334-26.3C297,75.02,293.123,67.056,285.8,62.319c-7.485-4.838-18.638-6.464-33.107-6.469C238.239,55.846,227.089,57.467,219.6,62.308Z" fill="#1a1818" fill-rule="evenodd"></path> <path id="Path_17" data-name="Path 17" d="M240.627,92.208a1.419,1.419,0,0,1-2.147-1.857,17.965,17.965,0,0,1,1.869-1.873,19.154,19.154,0,0,1,24.684,0,18.133,18.133,0,0,1,1.876,1.874,1.419,1.419,0,0,1-2.146,1.857,15.317,15.317,0,0,0-1.588-1.584,16.308,16.308,0,0,0-20.969,0A15.239,15.239,0,0,0,240.627,92.208Z" fill="#1a1818" fill-rule="evenodd"></path> <path id="Path_18" data-name="Path 18" d="M228.951,82.24a6.226,6.226,0,1,0-6.226-6.226A6.238,6.238,0,0,0,228.951,82.24Z" fill="#1a1818" fill-rule="evenodd"></path> <path id="Path_19" data-name="Path 19" d="M228.356,75.624a2,2,0,1,0-2-2A2,2,0,0,0,228.356,75.624Z" fill="#ffffff" fill-rule="evenodd"></path> <path id="Path_20" data-name="Path 20" d="M226.258,78.943a1.241,1.241,0,1,0-1.241-1.24A1.242,1.242,0,0,0,226.258,78.943Z" fill="#ffffff" fill-rule="evenodd"></path> <g id="Group_5" data-name="Group 5"> <path id="Path_21" data-name="Path 21" d="M276.439,82.24a6.226,6.226,0,1,0-6.226-6.226A6.238,6.238,0,0,0,276.439,82.24Z" fill="#1a1818" fill-rule="evenodd"></path> <path id="Path_22" data-name="Path 22" d="M275.845,75.624a2,2,0,1,0-2-2A2,2,0,0,0,275.845,75.624Z" fill="#ffffff" fill-rule="evenodd"></path> <path id="Path_23" data-name="Path 23" d="M273.747,78.943a1.241,1.241,0,1,0-1.241-1.24A1.242,1.242,0,0,0,273.747,78.943Z" fill="#ffffff" fill-rule="evenodd"></path> </g> <path id="Path_24" data-name="Path 24" d="M231.978,88.89l-6.057,0a1.68,1.68,0,0,1-1.171-2.884,5.51,5.51,0,0,1,.471-.459,5.767,5.767,0,0,1,7.456,0,5.536,5.536,0,0,1,.568.568,1.678,1.678,0,0,1-1.267,2.773Z" fill="#f57a84" fill-rule="evenodd"></path> <path id="Path_25" data-name="Path 25" d="M279.468,88.892H273.41A1.68,1.68,0,0,1,272.247,86a5.581,5.581,0,0,1,.462-.449,5.77,5.77,0,0,1,7.458,0,5.471,5.471,0,0,1,.567.56,1.68,1.68,0,0,1-1.266,2.782Z" fill="#f57a84" fill-rule="evenodd"></path> <path id="Path_26" data-name="Path 26" d="M228.95,82.738c2.345,0,4.258-.717,4.258-1.6s-1.913-1.6-4.258-1.6-4.258.717-4.258,1.6S226.6,82.738,228.95,82.738Z" fill="#00a1ed" fill-rule="evenodd"></path> <path id="Path_27" data-name="Path 27" d="M276.439,82.738c2.345,0,4.258-.717,4.258-1.6s-1.913-1.6-4.258-1.6-4.259.717-4.259,1.6S274.093,82.738,276.439,82.738Z" fill="#00a1ed" fill-rule="evenodd"></path> </g> </g></svg>