<svg xmlns="http://www.w3.org/2000/svg" viewBox="0 0 83.05 122.5" x="0px" y="0px"><defs><style>.cls-1{fill:none;stroke:#000;stroke-linecap:round;stroke-linejoin:round;stroke-width:4px;}</style></defs><title>Asset 27</title><g data-name="Layer 2"><g><path class="cls-1" d="M40.39,74.69,50.33,77s1.76.62,1.76-1.55c0,0,0,.9,0-.19,0-2.61.49-3.79,5.21-8.89,0,0,0,0,0,0a23.43,23.43,0,0,0,9-18.94,24.86,24.86,0,0,0-49.73,0,23.9,23.9,0,0,0,9,18.94s0,0,0,0c4.72,5.1,5.17,6.28,5.21,8.89,0,1.09,0,1.26,0,1.26,0,1.29-.28,2.43,1.19,2.88l19.17,4.22"/><line class="cls-1" x1="31.95" y1="85.78" x2="50.9" y2="90.08"/><line class="cls-1" x1="33.14" y1="92.55" x2="48.53" y2="96"/><line class="cls-1" x1="41.53" y1="2" x2="41.53" y2="9.26"/><line class="cls-1" x1="18.71" y1="8.11" x2="22.34" y2="14.4"/><line class="cls-1" x1="2" y1="24.82" x2="8.29" y2="28.45"/><line class="cls-1" x1="74.77" y1="28.45" x2="81.05" y2="24.82"/><line class="cls-1" x1="60.72" y1="14.4" x2="64.35" y2="8.11"/></g></g></svg>